PathFileType	4	(X/Y/Z)	E:\Qualisys_Data\Carbon_Farble_Plate\Data\Amateur_Runner\S1\T2\S1T2V13_c3d.trc
DataRate	CameraRate	NumFrames	NumMarkers	Units	OrigDataRate	OrigDataStartFrame	OrigNumFrames
200.000000	200.000000	4	39	mm	200.000000	38	307
Frame#	Time	LSHO			RSHO			LICST			RICST			LASIS			LHEEL			RASIS			LTROC			RTROC			SACR			LTH1			LSK4			LTH2			LTH3			RHM5			LSK2			LTH4			RTH1			LTOE			RTH2			RTH3			RTH4			LLEP			RLEP			LSK1			LSK3			RSK1			LHM5			RSK2			LFT1			RSK3			RSK4			LLME			RLME			RTOE			RHEEL			RFT1			RFT2			LFT2			
		X1	Y1	Z1	X2	Y2	Z2	X3	Y3	Z3	X4	Y4	Z4	X5	Y5	Z5	X6	Y6	Z6	X7	Y7	Z7	X8	Y8	Z8	X9	Y9	Z9	X10	Y10	Z10	X11	Y11	Z11	X12	Y12	Z12	X13	Y13	Z13	X14	Y14	Z14	X15	Y15	Z15	X16	Y16	Z16	X17	Y17	Z17	X18	Y18	Z18	X19	Y19	Z19	X20	Y20	Z20	X21	Y21	Z21	X22	Y22	Z22	X23	Y23	Z23	X24	Y24	Z24	X25	Y25	Z25	X26	Y26	Z26	X27	Y27	Z27	X28	Y28	Z28	X29	Y29	Z29	X30	Y30	Z30	X31	Y31	Z31	X32	Y32	Z32	X33	Y33	Z33	X34	Y34	Z34	X35	Y35	Z35	X36	Y36	Z36	X37	Y37	Z37	X38	Y38	Z38	X39	Y39	Z39	

39	0.19	-1543.959350585938	1472.544189453125	-523.1815795898438	-1573.387939453125	1428.089233398438	-193.6956634521484	-1611.95751953125	984.2262573242188	-519.8052978515625	-1614.017944335938	1027.3203125	-221.6737670898438	-1564.46923828125	951.344970703125	-483.3220825195312	-1925.26904296875	401.2757263183594	-428.4583740234375	-1572.279418945312	979.8671875	-226.3981628417969	-1672.1845703125	858.812255859375	-527.4901123046875	-1679.71240234375	888.649169921875	-192.2659606933594	-1732.972534179688	1021.577819824219	-368.9602966308594	-1503.803344726562	744.691650390625	-512.364501953125	-1780.998046875	442.6259765625	-461.09765625	-1579.852661132812	715.3759155273438	-538.116943359375	-1471.29248046875	645.7532348632812	-505.6598510742188	-1585.855712890625	61.06710815429688	-229.0961608886719	-1689.852416992188	468.142822265625	-502.6424560546875	-1550.679321289062	619.4751586914062	-522.5186767578125	-1527.413208007812	772.7189331054688	-205.2901611328125	-1862.441528320312	156.3927154541016	-431.6568603515625	-1602.532592773438	756.8986206054688	-182.6275024414062	-1510.198486328125	672.4397583007812	-214.6118316650391	-1589.231811523438	658.873291015625	-200.6240539550781	-1489.077514648438	487.1456909179688	-494.1265258789062	-1533.231079101562	497.2894287109375	-242.9638977050781	-1670.69677734375	387.5148010253906	-493.7573547363281	-1768.612182617188	366.1430969238281	-488.1485900878906	-1588.261352539062	315.9481506347656	-234.4881591796875	-1912.015747070312	210.1257019042969	-497.84326171875	-1663.665771484375	345.7669677734375	-238.8437957763672	-1951.211059570312	385.6485900878906	-403.3243103027344	-1622.267700195312	223.3334045410156	-251.4190521240234	-1696.100708007812	253.6404266357422	-265.3142700195312	-1887.479248046875	361.1722106933594	-481.0428771972656	-1702.115600585938	122.925178527832	-252.5854034423828	-1521.971069335938	67.2305908203125	-306.2271728515625	-1777.07080078125	102.2197570800781	-292.2633361816406	-1769.3408203125	66.68045806884766	-319.1211242675781	-1776.37109375	73.67475891113281	-263.8060913085938	-1955.823364257812	387.9387512207031	-458.6432189941406
40	0.195	-1530.187377929688	1474.69384765625	-524.4381103515625	-1555.3935546875	1429.930908203125	-194.0738983154297	-1598.432739257812	986.3777465820312	-520.1998291015625	-1598.212036132812	1028.566162109375	-220.9278106689453	-1549.08154296875	953.0945434570312	-483.4884338378906	-1898.41796875	394.38037109375	-428.1354370117188	-1554.4560546875	981.8021850585938	-227.1251983642578	-1656.28564453125	860.1329956054688	-526.8751220703125	-1662.7158203125	890.216552734375	-191.3180847167969	-1716.138916015625	1022.66748046875	-366.7327880859375	-1485.714965820312	749.2597045898438	-512.138427734375	-1755.87939453125	440.3735961914062	-461.1155395507812	-1561.677856445312	718.4857177734375	-538.2523803710938	-1451.100708007812	651.0787963867188	-505.739501953125	-1585.217651367188	61.043212890625	-229.1953430175781	-1662.488891601562	466.6962585449219	-500.0739440917969	-1529.946533203125	622.7716064453125	-521.943115234375	-1514.10400390625	770.5972290039062	-205.8479309082031	-1828.697998046875	152.2212219238281	-429.7882995605469	-1589.7333984375	757.4855346679688	-183.0072174072266	-1500.322021484375	670.2705688476562	-214.9466247558594	-1579.56884765625	659.1249389648438	-200.8810424804688	-1464.343139648438	492.5020751953125	-493.671630859375	-1524.608520507812	496.7057189941406	-243.9429931640625	-1643.510498046875	388.2070007324219	-492.6553344726562	-1741.755737304688	365.2555541992188	-487.6487731933594	-1583.647338867188	315.5360107421875	-235.80419921875	-1879.210083007812	203.9949493408203	-496.6288757324219	-1659.024169921875	346.6912841796875	-238.9523162841797	-1924.445068359375	378.6873168945312	-403.0902404785156	-1619.909790039062	223.1454315185547	-251.8784942626953	-1693.701049804688	255.6842651367188	-264.3519897460938	-1859.356811523438	355.8272399902344	-480.3125610351562	-1700.775146484375	124.0089569091797	-251.8609008789062	-1521.772338867188	67.27757263183594	-306.1956481933594	-1776.074096679688	103.3441772460938	-291.4349975585938	-1768.56201171875	67.82918548583984	-318.9316711425781	-1776.123901367188	74.74785614013672	-263.4575500488281	-1929.002563476562	380.6852111816406	-458.300537109375
41	0.2	-1516.909545898438	1476.7939453125	-525.6259155273438	-1536.767456054688	1432.352416992188	-194.1532287597656	-1584.23193359375	989.0234985351562	-518.9560546875	-1580.508544921875	1030.137817382812	-220.6880187988281	-1533.465454101562	955.044189453125	-483.3735961914062	-1872.407958984375	387.7650451660156	-428.1044006347656	-1534.7412109375	982.3385009765624	-227.854736328125	-1640.083984375	862.31298828125	-526.075439453125	-1647.426513671875	892.2225952148438	-191.2398071289062	-1700.724975585938	1025.2509765625	-366.1628723144531	-1467.828125	754.3466796875	-512.1422119140625	-1730.750732421875	438.1320190429688	-460.556640625	-1542.526123046875	721.4907836914062	-537.2315063476562	-1430.727294921875	656.9651489257812	-505.4521179199219	-1585.19482421875	61.20885848999023	-229.2471466064453	-1637.694458007812	466.7948303222656	-498.9399719238281	-1509.73291015625	627.1848754882812	-521.3178100585938	-1500.87255859375	769.8936157226562	-206.1390380859375	-1793.493041992188	147.7982177734375	-428.7778930664062	-1576.920776367188	757.8849487304688	-183.8310089111328	-1489.715454101562	668.995361328125	-215.8503723144531	-1568.454345703125	659.6056518554688	-201.0525360107422	-1440.761840820312	498.2197570800781	-493.2318420410156	-1516.435913085938	496.6559143066406	-245.0511016845703	-1614.994384765625	387.636474609375	-491.7196655273438	-1714.671875	363.8279724121094	-486.7713317871094	-1579.25634765625	315.7828063964844	-236.3735046386719	-1845.570190429688	197.9724273681641	-495.3443908691406	-1654.65380859375	347.4096069335938	-238.7016448974609	-1898.075439453125	371.4252014160156	-403.1687622070312	-1617.500610351562	223.5112457275391	-252.8797607421875	-1689.673461914062	256.8184204101562	-264.5685424804688	-1831.00927734375	349.6928100585938	-479.7600402832031	-1700.330444335938	125.7870712280273	-252.1191711425781	-1522.048950195312	66.4176254272461	-306.3380432128906	-1775.3388671875	103.8805770874023	-290.7218933105469	-1768.72412109375	69.55758666992188	-319.2195129394531	-1776.074829101562	75.5108642578125	-263.4041442871094	-1901.786010742188	372.0894470214844	-457.6573486328125
42	0.205	-1502.855224609375	1479.153442382812	-526.009765625	-1518.88916015625	1435.328735351562	-194.8833312988281	-1568.26953125	991.4569091796876	-518.3941040039062	-1562.106811523438	1031.608154296875	-220.6320343017578	-1522.003173828125	954.3832397460938	-492.6892700195312	-1846.975341796875	380.7401123046875	-428.5570678710938	-1520.722900390625	982.8321533203124	-228.4775695800781	-1624.197875976562	865.1093139648438	-526.2294311523438	-1628.798828125	894.206298828125	-189.8845062255859	-1683.649047851562	1027.194213867188	-364.6980285644531	-1449.587158203125	759.628662109375	-511.4139404296875	-1705.93408203125	435.8667907714844	-460.0960693359375	-1524.562255859375	725.40673828125	-536.9600219726562	-1410.828857421875	662.9861450195312	-505.0934753417969	-1584.98681640625	61.14780426025391	-229.5700225830078	-1613.935913085938	467.4208068847656	-498.2687377929688	-1489.051879882812	631.417724609375	-520.4751586914062	-1487.844604492188	769.6174926757812	-206.5318145751953	-1758.053344726562	143.8626098632812	-427.0692749023438	-1563.681762695312	758.7874145507812	-183.8147735595703	-1477.663818359375	669.0352783203125	-217.286865234375	-1556.8466796875	660.4661254882812	-201.2147064208984	-1416.653930664062	503.8514099121094	-491.9064025878906	-1508.18994140625	496.3606872558594	-246.5728149414062	-1588.538330078125	388.7552795410156	-490.8102722167969	-1687.446533203125	362.5214538574219	-486.1215515136719	-1575.336181640625	314.8976440429688	-237.7213592529297	-1811.187622070312	191.9361572265625	-493.9510803222656	-1649.439575195312	348.7608947753906	-238.5263519287109	-1870.9931640625	362.2294921875	-402.9677429199219	-1614.5927734375	224.2974853515625	-253.0860748291016	-1687.149047851562	258.7314147949219	-264.9044189453125	-1803.589233398438	343.9082336425781	-479.2255859375	-1699.318359375	127.1513442993164	-251.9173126220703	-1521.862915039062	65.95301055908203	-306.8382873535156	-1774.415161132812	105.3882827758789	-290.3718566894531	-1768.452026367188	71.12113952636719	-318.9377746582031	-1775.63916015625	76.7137222290039	-263.4208374023438	-1875.14208984375	363.4005126953125	-457.1522827148438
